<svg id="visual" viewBox="0 0 900 450" width="900" height="450" xmlns="http://www.w3.org/2000/svg" xmlns:xlink="http://www.w3.org/1999/xlink" version="1.1"><rect x="0" y="0" width="900" height="450" fill="#0F172A"></rect><path d="M0 273L18.8 268.3C37.7 263.7 75.3 254.3 112.8 262.3C150.3 270.3 187.7 295.7 225.2 302C262.7 308.3 300.3 295.7 337.8 286.8C375.3 278 412.7 273 450.2 273.2C487.7 273.3 525.3 278.7 562.8 278.3C600.3 278 637.7 272 675.2 276.5C712.7 281 750.3 296 787.8 302.5C825.3 309 862.7 307 881.3 306L900 305L900 451L881.3 451C862.7 451 825.3 451 787.8 451C750.3 451 712.7 451 675.2 451C637.7 451 600.3 451 562.8 451C525.3 451 487.7 451 450.2 451C412.7 451 375.3 451 337.8 451C300.3 451 262.7 451 225.2 451C187.7 451 150.3 451 112.8 451C75.3 451 37.7 451 18.8 451L0 451Z" fill="#155e75"></path><path d="M0 257L18.8 259.8C37.7 262.7 75.3 268.3 112.8 274.7C150.3 281 187.7 288 225.2 292.7C262.7 297.3 300.3 299.7 337.8 297.2C375.3 294.7 412.7 287.3 450.2 292.2C487.7 297 525.3 314 562.8 321.5C600.3 329 637.7 327 675.2 326C712.7 325 750.3 325 787.8 314.2C825.3 303.3 862.7 281.7 881.3 270.8L900 260L900 451L881.3 451C862.7 451 825.3 451 787.8 451C750.3 451 712.7 451 675.2 451C637.7 451 600.3 451 562.8 451C525.3 451 487.7 451 450.2 451C412.7 451 375.3 451 337.8 451C300.3 451 262.7 451 225.2 451C187.7 451 150.3 451 112.8 451C75.3 451 37.7 451 18.8 451L0 451Z" fill="#007b8c"></path><path d="M0 352L18.8 350.8C37.7 349.7 75.3 347.3 112.8 343.8C150.3 340.3 187.7 335.7 225.2 331.8C262.7 328 300.3 325 337.8 325.7C375.3 326.3 412.7 330.7 450.2 335C487.7 339.3 525.3 343.7 562.8 347.7C600.3 351.7 637.7 355.3 675.2 349.8C712.7 344.3 750.3 329.7 787.8 325.2C825.3 320.7 862.7 326.3 881.3 329.2L900 332L900 451L881.3 451C862.7 451 825.3 451 787.8 451C750.3 451 712.7 451 675.2 451C637.7 451 600.3 451 562.8 451C525.3 451 487.7 451 450.2 451C412.7 451 375.3 451 337.8 451C300.3 451 262.7 451 225.2 451C187.7 451 150.3 451 112.8 451C75.3 451 37.7 451 18.8 451L0 451Z" fill="#00999c"></path><path d="M0 380L18.8 378.3C37.7 376.7 75.3 373.3 112.8 369.2C150.3 365 187.7 360 225.2 354.8C262.7 349.7 300.3 344.3 337.8 348.7C375.3 353 412.7 367 450.2 373.7C487.7 380.3 525.3 379.7 562.8 381.7C600.3 383.7 637.7 388.3 675.2 384C712.7 379.7 750.3 366.3 787.8 367.2C825.3 368 862.7 383 881.3 390.5L900 398L900 451L881.3 451C862.7 451 825.3 451 787.8 451C750.3 451 712.7 451 675.2 451C637.7 451 600.3 451 562.8 451C525.3 451 487.7 451 450.2 451C412.7 451 375.3 451 337.8 451C300.3 451 262.7 451 225.2 451C187.7 451 150.3 451 112.8 451C75.3 451 37.7 451 18.8 451L0 451Z" fill="#00b7a1"></path><path d="M0 386L18.8 388.7C37.7 391.3 75.3 396.7 112.8 402.8C150.3 409 187.7 416 225.2 414.8C262.7 413.7 300.3 404.3 337.8 398.5C375.3 392.7 412.7 390.3 450.2 391.3C487.7 392.3 525.3 396.7 562.8 395.2C600.3 393.7 637.7 386.3 675.2 384.2C712.7 382 750.3 385 787.8 392C825.3 399 862.7 410 881.3 415.5L900 421L900 451L881.3 451C862.7 451 825.3 451 787.8 451C750.3 451 712.7 451 675.2 451C637.7 451 600.3 451 562.8 451C525.3 451 487.7 451 450.2 451C412.7 451 375.3 451 337.8 451C300.3 451 262.7 451 225.2 451C187.7 451 150.3 451 112.8 451C75.3 451 37.7 451 18.8 451L0 451Z" fill="#34d399"></path></svg>